<svg xmlns="http://www.w3.org/2000/svg" width="256" height="90" viewBox="0 0 256 90">
  <defs>
    <style>
      .cls-1 {
        fill: #222;
        fill-rule: evenodd;
      }
    </style>
  </defs>
  <path id="Animais_Fantásticos" data-name="Animais Fantásticos" class="cls-1" d="M23.9,35.157L14.139,10H13.5L4.1,34.237q-1.161,3-3.16,3.48v0.8q1.2-.12,3-0.12,2.319,0,4.6.12v-0.8a5.082,5.082,0,0,1-2.62-.6,1.987,1.987,0,0,1-.86-1.8,10.46,10.46,0,0,1,.8-3.28L7.5,27.8h9.68l2.44,6.56a5.5,5.5,0,0,1,.48,1.88,1.1,1.1,0,0,1-.66,1.1,6.537,6.537,0,0,1-2.18.38v0.8q1.68-.12,5.12-0.12,2.679,0,4.28.12v-0.8q-1.8-.08-2.76-2.56h0ZM7.819,27l4.56-11.96L16.859,27H7.819Zm44.6-12.8q-1.32.12-3.72,0.12-2.64,0-4.08-.12V15a7.016,7.016,0,0,1,2.36.42,1.81,1.81,0,0,1,1.02,1.1,7.686,7.686,0,0,1,.26,2.32v13.12L35.5,14.2q-1.521.12-3.68,0.12-2.4,0-3.72-.12V15a7.988,7.988,0,0,1,2.1.32,1.439,1.439,0,0,1,.9.92,7.227,7.227,0,0,1,.24,2.2v15.44a8.313,8.313,0,0,1-.24,2.3,1.772,1.772,0,0,1-.92,1.12,5.577,5.577,0,0,1-2.08.42v0.8q1.32-.12,3.72-0.12,2.64,0,4.08.12v-0.8a6.975,6.975,0,0,1-2.36-.42,1.8,1.8,0,0,1-1.02-1.1,7.663,7.663,0,0,1-.26-2.32V16.557l16,22.16h0.92V18.837a8.317,8.317,0,0,1,.24-2.3,1.772,1.772,0,0,1,.92-1.12,5.6,5.6,0,0,1,2.08-.42V14.2Zm13.04,0q-1.881.12-5.08,0.12-3.441,0-5.12-.12V15a7.988,7.988,0,0,1,2.1.32,1.439,1.439,0,0,1,.9.92,7.227,7.227,0,0,1,.24,2.2v15.84a7.221,7.221,0,0,1-.24,2.2,1.437,1.437,0,0,1-.9.92,7.958,7.958,0,0,1-2.1.32v0.8q1.68-.12,5.12-0.12,3.24,0,5.08.12v-0.8a7.958,7.958,0,0,1-2.1-.32,1.437,1.437,0,0,1-.9-0.92,7.221,7.221,0,0,1-.24-2.2V18.437a7.227,7.227,0,0,1,.24-2.2,1.439,1.439,0,0,1,.9-0.92,7.988,7.988,0,0,1,2.1-.32V14.2ZM99.5,15V14.2q-1.84.12-5.08,0.12h-1.88l-8.56,19.36L75.938,14.2q-1.48.12-3.4,0.12-2.4,0-3.72-.12V15a7.988,7.988,0,0,1,2.1.32,1.439,1.439,0,0,1,.9.92,7.227,7.227,0,0,1,.24,2.2v15.44a8.313,8.313,0,0,1-.24,2.3,1.772,1.772,0,0,1-.92,1.12,5.576,5.576,0,0,1-2.08.42v0.8q1.32-.12,3.72-0.12,2.64,0,4.08.12v-0.8a6.976,6.976,0,0,1-2.36-.42,1.8,1.8,0,0,1-1.02-1.1,7.663,7.663,0,0,1-.26-2.32V16.757l9.28,21.96H82.9l9.64-22v17.56a7.221,7.221,0,0,1-.24,2.2,1.437,1.437,0,0,1-.9.92,7.958,7.958,0,0,1-2.1.32v0.8q1.68-.12,5.12-0.12,3.24,0,5.08.12v-0.8a7.958,7.958,0,0,1-2.1-.32,1.437,1.437,0,0,1-.9-0.92,7.221,7.221,0,0,1-.24-2.2V18.437a7.227,7.227,0,0,1,.24-2.2,1.439,1.439,0,0,1,.9-0.92A7.988,7.988,0,0,1,99.5,15h0Zm23.68,20.16L113.818,14h-0.64l-8.84,20a10.993,10.993,0,0,1-1.44,2.5,3.439,3.439,0,0,1-1.84,1.22v0.8a34.615,34.615,0,0,1,3.48-.12q2.439,0,3.64.12v-0.8a4.624,4.624,0,0,1-2.38-.74,1.939,1.939,0,0,1-.74-1.62,6.764,6.764,0,0,1,.68-2.56l1.36-3h9.72l2.04,4.56a5.14,5.14,0,0,1,.56,1.88,1.106,1.106,0,0,1-.7,1.08,6.382,6.382,0,0,1-2.18.4v0.8q1.68-.12,5.12-0.12,2.679,0,4.28.12v-0.8q-1.68-.08-2.76-2.56h0ZM107.418,29l4.56-10.16L116.5,29h-9.08ZM137.7,14.2q-1.881.12-5.08,0.12-3.441,0-5.12-.12V15a7.988,7.988,0,0,1,2.1.32,1.439,1.439,0,0,1,.9.92,7.227,7.227,0,0,1,.24,2.2v15.84a7.221,7.221,0,0,1-.24,2.2,1.437,1.437,0,0,1-.9.92,7.958,7.958,0,0,1-2.1.32v0.8q1.68-.12,5.12-0.12,3.24,0,5.08.12v-0.8a7.958,7.958,0,0,1-2.1-.32,1.437,1.437,0,0,1-.9-0.92,7.221,7.221,0,0,1-.24-2.2V18.437a7.227,7.227,0,0,1,.24-2.2,1.439,1.439,0,0,1,.9-0.92,7.988,7.988,0,0,1,2.1-.32V14.2Zm11.919-.56a8.632,8.632,0,0,0-5.34,1.64,5.426,5.426,0,0,0-2.18,4.6,5.827,5.827,0,0,0,1.72,4.36,20.744,20.744,0,0,0,5,3.36q2.28,1.2,3.56,2a7.361,7.361,0,0,1,2.04,1.82,3.811,3.811,0,0,1,.76,2.34,4.023,4.023,0,0,1-1.46,3.38,5.453,5.453,0,0,1-3.46,1.14,6.189,6.189,0,0,1-5.28-2.28,11.162,11.162,0,0,1-2-6h-0.92q0,6.84-.16,8.8h0.92a4.792,4.792,0,0,1,.32-1.34,0.618,0.618,0,0,1,.56-0.42,2.892,2.892,0,0,1,1.36.56,11.219,11.219,0,0,0,2.34,1.08,10.294,10.294,0,0,0,3.14.4,9.4,9.4,0,0,0,5.86-1.78,5.94,5.94,0,0,0,2.34-5.02,5.34,5.34,0,0,0-.92-3.1,9.357,9.357,0,0,0-2.42-2.38,40.863,40.863,0,0,0-3.98-2.36l-1.32-.72q-1.8-.96-2.78-1.62a5.833,5.833,0,0,1-1.6-1.58,3.774,3.774,0,0,1-.62-2.16,3.5,3.5,0,0,1,1.38-2.84,5.378,5.378,0,0,1,3.5-1.12,5.7,5.7,0,0,1,4.7,2,8.7,8.7,0,0,1,1.86,4.88h0.92q0-5.28.2-7.36h-0.92a4.75,4.75,0,0,1-.32,1.34,0.617,0.617,0,0,1-.56.42,2.888,2.888,0,0,1-1.36-.56,10.317,10.317,0,0,0-2.1-1.1,8.2,8.2,0,0,0-2.78-.38h0ZM22.859,50.2q-2.481.12-8.36,0.12-7.68,0-11.6-.12V51a7.988,7.988,0,0,1,2.1.32,1.439,1.439,0,0,1,.9.92,7.227,7.227,0,0,1,.24,2.2v19.84a7.221,7.221,0,0,1-.24,2.2,1.437,1.437,0,0,1-.9.92,7.958,7.958,0,0,1-2.1.32v0.8q1.68-.12,5.12-0.12,3.8,0,5.88.12v-0.8a11.813,11.813,0,0,1-2.6-.32,1.706,1.706,0,0,1-1.12-.92,5.52,5.52,0,0,1-.32-2.2v-9.2h2.92a3.522,3.522,0,0,1,2.5.84,3.939,3.939,0,0,1,1.1,2.5q0.2,1.66.24,1.94h0.92q-0.24-3.639-.24-5.68v-1.92q0-2.079.12-3.76H16.5l-0.12.8a14.407,14.407,0,0,1-.42,2.26,3.232,3.232,0,0,1-1.02,1.56,3.2,3.2,0,0,1-2.16.66H9.859v-9.84a7.228,7.228,0,0,1,.24-2.2,1.38,1.38,0,0,1,.9-0.9,7.249,7.249,0,0,1,2.1-.22h2.52a7.526,7.526,0,0,1,3.68.7,3.751,3.751,0,0,1,1.68,2.2,24.577,24.577,0,0,1,.8,4.58H22.7q-0.12-1.28-.12-3.28,0-2.28.28-5.12h0ZM43.3,75.157L33.939,54H33.3l-8.84,20a10.978,10.978,0,0,1-1.44,2.5,3.439,3.439,0,0,1-1.84,1.22v0.8a34.618,34.618,0,0,1,3.48-.12q2.439,0,3.64.12v-0.8a4.625,4.625,0,0,1-2.38-.74,1.939,1.939,0,0,1-.74-1.62,6.767,6.767,0,0,1,.68-2.56l1.36-3h9.72l2.04,4.56a5.138,5.138,0,0,1,.56,1.88,1.105,1.105,0,0,1-.7,1.08,6.38,6.38,0,0,1-2.18.4v0.8q1.68-.12,5.12-0.12,2.679,0,4.28.12v-0.8q-1.68-.08-2.76-2.56h0ZM27.539,69l4.56-10.16L36.619,69h-9.08Zm44.4-14.8q-1.32.12-3.72,0.12-2.64,0-4.08-.12V55a7.017,7.017,0,0,1,2.36.42,1.811,1.811,0,0,1,1.02,1.1,7.686,7.686,0,0,1,.26,2.32v13.12L55.019,54.2q-1.521.12-3.68,0.12-2.4,0-3.72-.12V55a7.988,7.988,0,0,1,2.1.32,1.439,1.439,0,0,1,.9.92,7.227,7.227,0,0,1,.24,2.2v15.44a8.313,8.313,0,0,1-.24,2.3,1.772,1.772,0,0,1-.92,1.12,5.577,5.577,0,0,1-2.08.42v0.8q1.32-.12,3.72-0.12,2.64,0,4.08.12v-0.8a6.975,6.975,0,0,1-2.36-.42,1.8,1.8,0,0,1-1.02-1.1,7.66,7.66,0,0,1-.26-2.32V56.557l16,22.16H68.7V58.837a8.317,8.317,0,0,1,.24-2.3,1.772,1.772,0,0,1,.92-1.12,5.6,5.6,0,0,1,2.08-.42V54.2Zm25.28,0q-3.321.12-11.24,0.12-7.96,0-11.28-.12a45.375,45.375,0,0,1,.28,4.72q0,2-.12,3.28h0.92a18.329,18.329,0,0,1,.76-4.28,3.782,3.782,0,0,1,1.68-2.14,6.8,6.8,0,0,1,3.32-.66H84.1v18.76a6.775,6.775,0,0,1-.32,2.44,1.806,1.806,0,0,1-1.12,1.04,9.957,9.957,0,0,1-2.6.36v0.8q1.92-.12,5.92-0.12,3.8,0,5.88.12v-0.8a9.952,9.952,0,0,1-2.6-.36,1.8,1.8,0,0,1-1.12-1.04,6.759,6.759,0,0,1-.32-2.44V55.117h2.56a6.8,6.8,0,0,1,3.32.66,3.788,3.788,0,0,1,1.68,2.14,18.367,18.367,0,0,1,.76,4.28h0.92q-0.12-1.2-.12-3.28a45.183,45.183,0,0,1,.28-4.72h0Zm20.76,20.96L108.619,54h-0.64l-8.84,20a10.978,10.978,0,0,1-1.44,2.5,3.439,3.439,0,0,1-1.84,1.22v0.8a34.618,34.618,0,0,1,3.48-.12q2.439,0,3.64.12v-0.8a4.624,4.624,0,0,1-2.38-.74,1.939,1.939,0,0,1-.74-1.62,6.764,6.764,0,0,1,.68-2.56l1.36-3h9.72l2.04,4.56a5.14,5.14,0,0,1,.56,1.88,1.106,1.106,0,0,1-.7,1.08,6.382,6.382,0,0,1-2.18.4v0.8q1.68-.12,5.12-0.12,2.679,0,4.28.12v-0.8q-1.68-.08-2.76-2.56h0ZM102.219,69l4.56-10.16L111.3,69h-9.08Zm9.96-24.96a19.9,19.9,0,0,0-2.44,2.04q-0.28.24-1.46,1.3t-2.82,2.3l0.28,0.52q2.16-1.08,5.16-2.28a17.836,17.836,0,0,0,2.88-1.28,1.9,1.9,0,0,0,1.08-1.56,1.349,1.349,0,0,0-.24-0.76,1.46,1.46,0,0,0-1.24-.68,2.29,2.29,0,0,0-1.2.4h0Zm18.68,9.6a8.628,8.628,0,0,0-5.34,1.64,5.424,5.424,0,0,0-2.18,4.6,5.823,5.823,0,0,0,1.72,4.36,20.7,20.7,0,0,0,5,3.36q2.28,1.2,3.56,2a7.389,7.389,0,0,1,2.04,1.82,3.817,3.817,0,0,1,.76,2.34,4.026,4.026,0,0,1-1.46,3.38,5.457,5.457,0,0,1-3.46,1.14,6.186,6.186,0,0,1-5.28-2.28,11.145,11.145,0,0,1-2-6H123.3q0,6.84-.16,8.8h0.92a4.756,4.756,0,0,1,.32-1.34,0.617,0.617,0,0,1,.56-0.42,2.9,2.9,0,0,1,1.36.56,11.172,11.172,0,0,0,2.34,1.08,10.289,10.289,0,0,0,3.14.4,9.4,9.4,0,0,0,5.86-1.78,5.94,5.94,0,0,0,2.34-5.02,5.347,5.347,0,0,0-.92-3.1,9.373,9.373,0,0,0-2.42-2.38,40.985,40.985,0,0,0-3.98-2.36l-1.32-.72q-1.8-.96-2.78-1.62a5.806,5.806,0,0,1-1.6-1.58,3.767,3.767,0,0,1-.62-2.16,3.5,3.5,0,0,1,1.38-2.84,5.376,5.376,0,0,1,3.5-1.12,5.7,5.7,0,0,1,4.7,2,8.7,8.7,0,0,1,1.86,4.88h0.92q0-5.28.2-7.36h-0.92a4.785,4.785,0,0,1-.32,1.34,0.618,0.618,0,0,1-.56.42,2.885,2.885,0,0,1-1.36-.56,10.317,10.317,0,0,0-2.1-1.1,8.2,8.2,0,0,0-2.78-.38h0ZM165.9,54.2q-3.319.12-11.24,0.12-7.959,0-11.28-.12a45.155,45.155,0,0,1,.28,4.72q0,2-.12,3.28h0.92a18.377,18.377,0,0,1,.76-4.28,3.789,3.789,0,0,1,1.68-2.14,6.8,6.8,0,0,1,3.32-.66h2.56v18.76a6.755,6.755,0,0,1-.32,2.44,1.8,1.8,0,0,1-1.12,1.04,9.951,9.951,0,0,1-2.6.36v0.8q1.92-.12,5.92-0.12,3.8,0,5.88.12v-0.8a9.958,9.958,0,0,1-2.6-.36,1.807,1.807,0,0,1-1.12-1.04,6.777,6.777,0,0,1-.32-2.44V55.117h2.56a6.8,6.8,0,0,1,3.32.66,3.78,3.78,0,0,1,1.68,2.14,18.324,18.324,0,0,1,.76,4.28h0.92q-0.12-1.2-.12-3.28a45.431,45.431,0,0,1,.28-4.72h0Zm13.24,0q-1.88.12-5.08,0.12-3.441,0-5.12-.12V55a7.988,7.988,0,0,1,2.1.32,1.439,1.439,0,0,1,.9.92,7.227,7.227,0,0,1,.24,2.2v15.84a7.221,7.221,0,0,1-.24,2.2,1.437,1.437,0,0,1-.9.92,7.958,7.958,0,0,1-2.1.32v0.8q1.68-.12,5.12-0.12,3.24,0,5.08.12v-0.8a7.958,7.958,0,0,1-2.1-.32,1.437,1.437,0,0,1-.9-0.92,7.221,7.221,0,0,1-.24-2.2V58.437a7.227,7.227,0,0,1,.24-2.2,1.439,1.439,0,0,1,.9-0.92,7.988,7.988,0,0,1,2.1-.32V54.2Zm15.4-.56a11.806,11.806,0,0,0-6.16,1.62,11.126,11.126,0,0,0-4.24,4.56,14.561,14.561,0,0,0-1.52,6.78,14.323,14.323,0,0,0,1.48,6.74,10.073,10.073,0,0,0,4.16,4.28,12.845,12.845,0,0,0,6.24,1.46,8.419,8.419,0,0,0,3.52-.66,13.185,13.185,0,0,0,2.96-1.94,1.46,1.46,0,0,1,.8-0.36,0.748,0.748,0,0,1,.64.58,6.843,6.843,0,0,1,.36,1.82h0.92q-0.16-2.52-.16-8.8h-0.92a21.308,21.308,0,0,1-.7,3.32,7.84,7.84,0,0,1-1.14,2.2,7.457,7.457,0,0,1-2.74,2.26,7.7,7.7,0,0,1-3.38.78,6.614,6.614,0,0,1-4.1-1.38,9.178,9.178,0,0,1-2.88-4.04,17.342,17.342,0,0,1-1.06-6.42,19.246,19.246,0,0,1,.96-6.4,9.234,9.234,0,0,1,2.7-4.16,6.232,6.232,0,0,1,4.1-1.44,7.24,7.24,0,0,1,3.28.78,7.613,7.613,0,0,1,2.68,2.26,8.692,8.692,0,0,1,1.2,2.04,18.2,18.2,0,0,1,.8,3.08h0.92q0-6,.16-8.4H202.5q-0.24,2.4-1.04,2.4a1.3,1.3,0,0,1-.76-0.36,13.321,13.321,0,0,0-2.84-1.94,7.557,7.557,0,0,0-3.32-.66h0Zm26.08,0a12.463,12.463,0,0,0-6.36,1.62,11.36,11.36,0,0,0-4.38,4.56,14.094,14.094,0,0,0-1.58,6.78,14.007,14.007,0,0,0,1.52,6.74,10.158,10.158,0,0,0,4.3,4.28,13.7,13.7,0,0,0,6.46,1.46,12.468,12.468,0,0,0,6.36-1.62,11.373,11.373,0,0,0,4.38-4.56,14.105,14.105,0,0,0,1.58-6.78,14.021,14.021,0,0,0-1.52-6.74,10.173,10.173,0,0,0-4.3-4.28,13.7,13.7,0,0,0-6.46-1.46h0Zm-0.16.72a6.9,6.9,0,0,1,4.28,1.46,9.777,9.777,0,0,1,3.04,4.18,16.408,16.408,0,0,1,1.12,6.28,18.2,18.2,0,0,1-1,6.26,9.736,9.736,0,0,1-2.86,4.28,6.545,6.545,0,0,1-4.3,1.54,6.9,6.9,0,0,1-4.28-1.46,9.76,9.76,0,0,1-3.04-4.18,16.385,16.385,0,0,1-1.12-6.28,18.186,18.186,0,0,1,1-6.26,9.736,9.736,0,0,1,2.86-4.28,6.547,6.547,0,0,1,4.3-1.54h0Zm24.8-.72a8.628,8.628,0,0,0-5.34,1.64,5.424,5.424,0,0,0-2.18,4.6,5.823,5.823,0,0,0,1.72,4.36,20.7,20.7,0,0,0,5,3.36q2.28,1.2,3.56,2a7.389,7.389,0,0,1,2.04,1.82,3.817,3.817,0,0,1,.76,2.34,4.026,4.026,0,0,1-1.46,3.38,5.457,5.457,0,0,1-3.46,1.14,6.186,6.186,0,0,1-5.28-2.28,11.145,11.145,0,0,1-2-6H237.7q0,6.84-.16,8.8h0.92a4.756,4.756,0,0,1,.32-1.34,0.617,0.617,0,0,1,.56-0.42,2.9,2.9,0,0,1,1.36.56,11.172,11.172,0,0,0,2.34,1.08,10.289,10.289,0,0,0,3.14.4,9.4,9.4,0,0,0,5.86-1.78,5.94,5.94,0,0,0,2.34-5.02,5.347,5.347,0,0,0-.92-3.1,9.373,9.373,0,0,0-2.42-2.38,40.985,40.985,0,0,0-3.98-2.36l-1.32-.72q-1.8-.96-2.78-1.62a5.806,5.806,0,0,1-1.6-1.58,3.767,3.767,0,0,1-.62-2.16,3.5,3.5,0,0,1,1.38-2.84,5.376,5.376,0,0,1,3.5-1.12,5.7,5.7,0,0,1,4.7,2,8.7,8.7,0,0,1,1.86,4.88h0.92q0-5.28.2-7.36h-0.92a4.785,4.785,0,0,1-.32,1.34,0.618,0.618,0,0,1-.56.42,2.885,2.885,0,0,1-1.36-.56,10.317,10.317,0,0,0-2.1-1.1,8.2,8.2,0,0,0-2.78-.38h0Z"/>
</svg>
